<svg id="グループ_60" data-name="グループ 60" xmlns="http://www.w3.org/2000/svg" width="541.433" height="591.13" viewBox="0 0 541.433 591.13">
  <path id="パス_48" data-name="パス 48" d="M778.722,753.582c-114.523.007-221.132-73.337-257.88-188.1a270.582,270.582,0,0,1,276.928-352.4l-1.977,27.584A242.922,242.922,0,0,0,547.175,557.048c40.84,127.579,177.853,198.131,305.438,157.3A242.91,242.91,0,0,0,957.985,319.232L978.4,300.585a270.625,270.625,0,0,1-199.679,453Z" transform="translate(-507.824 -162.452)" fill="#f4f4f4"/>
  <path id="パス_49" data-name="パス 49" d="M586.638,497.538c-19.1.007-47.012-5.481-76.807-29.857l17.514-21.4c41.068,33.61,74.955,21.681,75.3,21.563,16.906-5.881,26.194-13.809,27.846-23.651,4.389-26.222-37-69.847-64.117-91.19l-29.857-23.485,37.971-1.189c36.153-1.134,54.178-33.14,62.569-56.653-35.4,9.745-75.646,8.5-77.775,8.446l.94-27.632c.6.034,59.432,1.783,90.265-15.565L674.9,223.2l-3.959,27.735c-4.209,29.471-23.223,81.134-66.3,98.882,24.232,23.126,59.08,63.357,53.115,98.951-3.449,20.562-18.854,35.739-45.788,45.111C611.195,494.158,601.636,497.538,586.638,497.538Z" transform="translate(-495.963 -98.54)" fill="#f4f4f4"/>
  <path id="パス_50" data-name="パス 50" d="M551.213,356.382,538.047,328.8c95.24-45.449,101.288-120.473,101.494-123.646l30.5,1.776C669.828,210.827,663.462,302.811,551.213,356.382Z" transform="translate(-329.166 -205.159)" fill="#f4f4f4"/>
  <path id="パス_51" data-name="パス 51" d="M569.768,303.175l-16.946-25.427c27.928-18.619,46-65.859,46.176-66.336l28.6,10.747C626.733,224.468,605.95,279.047,569.768,303.175Z" transform="translate(-241.823 -168.195)" fill="#f4f4f4"/>
  <path id="パス_52" data-name="パス 52" d="M577.605,305.991l-16.946-25.427c27.936-18.619,46-65.852,46.175-66.329l28.606,10.741C634.569,227.29,613.794,281.87,577.605,305.991Z" transform="translate(-195.496 -151.513)" fill="#f4f4f4"/>
  <rect id="長方形_180" data-name="長方形 180" width="264.343" height="30.555" transform="translate(243.633 206.659)" fill="#f4f4f4"/>
  <rect id="長方形_181" data-name="長方形 181" width="270.843" height="30.555" transform="translate(252.299 272.487)" fill="#f4f4f4"/>
  <rect id="長方形_182" data-name="長方形 182" width="316.344" height="30.555" transform="translate(206.798 332.331)" fill="#f4f4f4"/>
  <path id="パス_53" data-name="パス 53" d="M596.939,451.19c-86.006-48.338-72.1-144.429-52.728-188.475l27.971,12.3L558.2,268.859l14,6.124c-1.818,4.174-43.515,102.794,39.713,149.564Z" transform="translate(-378.907 135.081)" fill="#f4f4f4"/>
  <path id="パス_54" data-name="パス 54" d="M656.946,402.722C573,396.024,545.119,314.11,542.1,271.736l30.487-2.17-15.24,1.085,15.233-1.119a158.3,158.3,0,0,0,14.431,50.91c15.509,31.793,39.859,49.23,72.364,51.815Z" transform="translate(-305.212 175.373)" fill="#f4f4f4"/>
  <path id="パス_55" data-name="パス 55" d="M661.818,388.021c-77.643-6.186-103.423-81.839-106.2-120.971l30.479-2.17-15.239,1.085,15.232-1.12c.27,3.553,7.416,87.077,78.162,92.717Z" transform="translate(-225.301 147.672)" fill="#f4f4f4"/>
</svg>
