<svg xmlns="http://www.w3.org/2000/svg" width="89.964" height="22.097" viewBox="0 0 89.964 22.097">
  <g id="グループ_122" data-name="グループ 122" transform="translate(-226.448 -1300.985)">
    <g id="グループ_52" data-name="グループ 52" transform="translate(226.448 1300.985)">
      <path id="パス_48" data-name="パス 48" d="M517.951,232.613a10.115,10.115,0,1,1,.712-20.2l-.074,1.031a9.083,9.083,0,1,0,6.063,2.937l.763-.7a10.116,10.116,0,0,1-7.464,16.933Z" transform="translate(-507.825 -210.517)" fill="#1a1311"/>
      <path id="パス_49" data-name="パス 49" d="M512.7,233.45a4.5,4.5,0,0,1-2.871-1.116l.655-.8a3.054,3.054,0,0,0,2.815.806c.632-.22.979-.516,1.041-.884.164-.98-1.383-2.611-2.4-3.409l-1.116-.878,1.419-.044a2.762,2.762,0,0,0,2.339-2.118,11.123,11.123,0,0,1-2.907.316l.035-1.033a8.187,8.187,0,0,0,3.374-.582L516,223.2l-.148,1.037a4.8,4.8,0,0,1-2.478,3.7c.906.864,2.208,2.368,1.985,3.7a2.257,2.257,0,0,1-1.712,1.686A2.951,2.951,0,0,1,512.7,233.45Z" transform="translate(-509.313 -218.535)" fill="#1a1311"/>
      <path id="パス_50" data-name="パス 50" d="M538.539,210.812l-.492-1.031c3.56-1.7,3.786-4.5,3.794-4.622l1.14.066C542.973,205.371,542.735,208.809,538.539,210.812Z" transform="translate(-530.239 -205.159)" fill="#1a1311"/>
      <path id="パス_51" data-name="パス 51" d="M553.456,214.842l-.633-.95a6.128,6.128,0,0,0,1.726-2.48l1.069.4A7.177,7.177,0,0,1,553.456,214.842Z" transform="translate(-541.197 -209.797)" fill="#1a1311"/>
      <path id="パス_52" data-name="パス 52" d="M561.292,217.664l-.633-.95a6.125,6.125,0,0,0,1.726-2.479l1.069.4A7.174,7.174,0,0,1,561.292,217.664Z" transform="translate(-547.009 -211.889)" fill="#1a1311"/>
      <rect id="長方形_180" data-name="長方形 180" width="9.881" height="1.142" transform="translate(9.107 7.725)" fill="#1a1311"/>
      <rect id="長方形_181" data-name="長方形 181" width="10.124" height="1.142" transform="translate(9.431 10.186)" fill="#1a1311"/>
      <rect id="長方形_182" data-name="長方形 182" width="11.825" height="1.142" transform="translate(7.73 12.423)" fill="#1a1311"/>
      <path id="パス_53" data-name="パス 53" d="M532.148,269.76c-3.215-1.807-2.7-5.4-1.971-7.045l1.046.46-.523-.23.523.229c-.068.156-1.627,3.842,1.485,5.591Z" transform="translate(-523.998 -247.845)" fill="#1a1311"/>
      <path id="パス_54" data-name="パス 54" d="M546.392,274.51c-3.138-.25-4.18-3.312-4.293-4.9l1.14-.081-.57.041.569-.042a5.915,5.915,0,0,0,.539,1.9,3.168,3.168,0,0,0,2.7,1.937Z" transform="translate(-533.244 -252.9)" fill="#1a1311"/>
      <path id="パス_55" data-name="パス 55" d="M559.587,269.449c-2.9-.231-3.866-3.059-3.97-4.522l1.139-.081-.57.041.569-.042c.01.133.277,3.255,2.922,3.466Z" transform="translate(-543.27 -249.425)" fill="#1a1311"/>
    </g>
    <g id="グループ_53" data-name="グループ 53" transform="translate(254.336 1302.953)">
      <path id="パス_56" data-name="パス 56" d="M478.05,320.705c-2,0-3.357-.848-3.357-1.348a.31.31,0,0,1,.554-.2,3.412,3.412,0,0,0,2.575.891,6.93,6.93,0,0,0,2.053-.326.6.6,0,0,1,.185-.032.316.316,0,0,1,.336.326.4.4,0,0,1-.326.381A6.872,6.872,0,0,1,478.05,320.705Zm1.228-5.715a.4.4,0,0,1-.108-.011,8.933,8.933,0,0,0-1.815-.185,9.223,9.223,0,0,0-1.64.152.3.3,0,0,1-.1.011.286.286,0,0,1-.3-.282c0-.152.109-.315.369-.359a13.746,13.746,0,0,1,1.869-.12c1.825,0,2.086.206,2.086.467A.342.342,0,0,1,479.278,314.991Zm1.119-.826a3.571,3.571,0,0,0-.966-.88.2.2,0,0,1-.109-.174.235.235,0,0,1,.25-.228c.326,0,1.3.793,1.3,1.13a.276.276,0,0,1-.272.272A.236.236,0,0,1,480.4,314.165Zm1.022-.652a3.511,3.511,0,0,0-.989-.88.216.216,0,0,1-.12-.185.226.226,0,0,1,.25-.206c.3,0,1.325.739,1.325,1.1a.281.281,0,0,1-.272.293A.231.231,0,0,1,481.418,313.513Z" transform="translate(-474.693 -312.144)" fill="#1a1311"/>
      <path id="パス_57" data-name="パス 57" d="M498.756,312.58c.576,0,1.249.011,1.249.728a5.536,5.536,0,0,1-.489,1.488,1.388,1.388,0,0,0-.141.521,1.3,1.3,0,0,0,.25.652,2.711,2.711,0,0,1,.467,1.51,1.312,1.312,0,0,1-1.325,1.488c-.478,0-.543-.152-.543-.3s.087-.272.207-.272c.021,0,.032.011.054.011a1.279,1.279,0,0,0,.272.043c.511,0,.793-.478.793-.989a2.724,2.724,0,0,0-.478-1.445,1.219,1.219,0,0,1-.217-.652,1.909,1.909,0,0,1,.141-.619,6.386,6.386,0,0,0,.413-1.369c0-.272-.206-.315-.543-.315-.153,0-.326.011-.446.011-.315.011-.445.185-.445.489-.022,1.8-.011,5.269-.022,7.866a.277.277,0,0,1-.282.293.288.288,0,0,1-.3-.293c0-2.01.022-5.856.054-7.964C497.441,312.58,498.028,312.58,498.756,312.58Zm.457,8.506a.212.212,0,0,1,.1-.184,2.788,2.788,0,0,0,1-1.282.236.236,0,0,1,.217-.163.282.282,0,0,1,.272.261c0,.391-.923,1.64-1.315,1.64A.275.275,0,0,1,499.212,321.086Zm1.77-3.889a.218.218,0,0,1,0-.435h4.1c0-.152-.011-.282-.011-.38-.021-.337-.249-.445-.565-.456-.272-.011-.848-.011-1.477-.011-.848,0-1.793,0-2.194.011a.218.218,0,1,1,0-.435c.423-.011,1.379-.011,2.26-.011h1a7.931,7.931,0,0,0,.826-1.695.226.226,0,0,1,.228-.141c.152,0,.326.1.326.25a7.356,7.356,0,0,1-.837,1.608c.956.043.956.532.956,1.347,0,.282,0,.565-.01.815-.011.554-.315.837-.989.847-.533.011-1.477.022-2.336.022-.6,0-1.162-.011-1.489-.011a.214.214,0,0,1-.217-.228.208.208,0,0,1,.206-.217h.011c.359.011.956.011,1.586.011.859,0,1.76,0,2.151-.011.565-.011.576-.152.576-.88Zm.37-3.759c-.608,0-.772-.011-.772-.272a.248.248,0,0,1,.261-.25h.022c.271.011.564.022.858.022a17.339,17.339,0,0,0,3.422-.326c.022,0,.033-.011.054-.011a.3.3,0,0,1,.282.282c0,.109-.066.2-.239.239A21.011,21.011,0,0,1,501.352,313.438Zm-.011,1.684a2.561,2.561,0,0,0-.554-.815.2.2,0,0,1-.054-.141.256.256,0,0,1,.272-.217c.315,0,.825.858.825,1.021a.307.307,0,0,1-.293.293A.215.215,0,0,1,501.341,315.122Zm1.543,6.41c-1.032,0-1.489-.228-1.489-.989v-.793c0-.543,0-.7.272-.7a.241.241,0,0,1,.271.229c0,.3-.01,1.108-.01,1.228.01.315.108.532.966.532,1.087,0,1.272-.2,1.282-.717a.231.231,0,0,1,.25-.239.281.281,0,0,1,.3.25C504.731,321.337,504.014,321.532,502.884,321.532Zm.565-1.651a2.782,2.782,0,0,0-.966-.793.149.149,0,0,1-.087-.141.272.272,0,0,1,.271-.239c.206,0,1.239.608,1.239,1a.284.284,0,0,1-.272.272A.243.243,0,0,1,503.449,319.88Zm-.543-4.91a2.929,2.929,0,0,0-.4-.934.13.13,0,0,1-.022-.087c0-.109.13-.206.261-.206.358,0,.673.978.673,1.119a.306.306,0,0,1-.293.293A.218.218,0,0,1,502.906,314.97Zm3.184,5.866a3.646,3.646,0,0,0-1.141-1.1.227.227,0,0,1-.109-.185.265.265,0,0,1,.272-.239c.283,0,1.51.935,1.51,1.358a.3.3,0,0,1-.293.3A.285.285,0,0,1,506.089,320.836Z" transform="translate(-487.892 -312.341)" fill="#1a1311"/>
      <path id="パス_58" data-name="パス 58" d="M527.786,317.114l-.011,1.391c.435,0,.891.011,1.369.022.7.011.978.4,1,.815.011.207.022.413.022.63s-.011.413-.022.641c-.021.445-.315.848-1.053.869-.587.021-1.087.021-1.586.021s-.966,0-1.532-.021c-.717-.022-1.053-.391-1.076-.859-.011-.185-.011-.369-.011-.554,0-.25,0-.478.011-.7.022-.424.315-.826,1.054-.848.413-.011.837-.022,1.271-.022l-.01-1.391-3.227.011a7.223,7.223,0,0,1-1.228,3.955.343.343,0,0,1-.282.152.291.291,0,0,1-.3-.272.345.345,0,0,1,.065-.184,7.831,7.831,0,0,0,1.217-4.846c0-.728-.033-1.456-.043-2.173v-.022a.961.961,0,0,1,1.065-.978c.7-.022,1.564-.022,2.445-.022s1.76,0,2.477.022c.967.011,1.01.478,1.01,1.271,0,.511-.1.978-1.119.989-.956.011-2.271.033-3.607.033-.554,0-1.119,0-1.651-.011,0,.217.011.435.011.652,0,.3-.011.608-.022.923l3.194.011V315.5a.262.262,0,0,1,.282-.261.266.266,0,0,1,.293.261v1.13l3.118-.011a.255.255,0,1,1,0,.511Zm-3.77-2.575c.761.011,1.575.011,2.368.011,1.119,0,2.162-.011,2.89-.033.511-.011.565-.261.565-.641,0-.445-.044-.63-.587-.641-.609-.011-1.358-.022-2.119-.022-.923,0-1.847.011-2.51.022a.576.576,0,0,0-.619.619v.033Zm1.424,5.454c0,.706.054,1,.619,1.01.4.011.837.022,1.293.022.543,0,1.108-.011,1.629-.022.544-.01.608-.271.608-.945,0-.2,0-.391-.01-.543-.022-.521-.2-.532-2.053-.532-.511,0-1.022,0-1.467.022C525.493,319.015,525.439,319.287,525.439,319.993Z" transform="translate(-502.332 -312.432)" fill="#1a1311"/>
      <path id="パス_59" data-name="パス 59" d="M552.914,316.885a.333.333,0,0,1-.131.63.352.352,0,0,1-.2-.065,4.272,4.272,0,0,0-1.586-.619.233.233,0,0,1-.207-.239.308.308,0,0,1,.315-.315A6.555,6.555,0,0,1,552.914,316.885Zm-.8,4.02a.35.35,0,0,1-.358-.337.325.325,0,0,1,.272-.315,9.767,9.767,0,0,0,5.9-5.258.323.323,0,0,1,.608.13.53.53,0,0,1-.065.228A10.623,10.623,0,0,1,552.109,320.9Zm1.815-5.356a4.535,4.535,0,0,0-1.424-.967.251.251,0,0,1-.163-.228.3.3,0,0,1,.3-.3c.153,0,1.847.8,1.847,1.271a.339.339,0,0,1-.326.348A.358.358,0,0,1,553.924,315.549Zm3.085-1.3a3.387,3.387,0,0,0-1.053-.771.2.2,0,0,1-.142-.185.256.256,0,0,1,.272-.228c.239,0,1.38.608,1.38,1.01a.274.274,0,0,1-.261.272A.247.247,0,0,1,557.009,314.245Zm.9-.793a3.5,3.5,0,0,0-1.076-.76.227.227,0,0,1-.152-.2.257.257,0,0,1,.272-.228c.2,0,1.412.6,1.412,1a.278.278,0,0,1-.271.282A.243.243,0,0,1,557.911,313.452Z" transform="translate(-518.997 -312.159)" fill="#1a1311"/>
      <path id="パス_60" data-name="パス 60" d="M580.271,325.27c.348.01.793.021,1.249.021,2.1,0,2.336-.021,2.358-.51.011-.207.011-.576.011-.967-1.076.022-2.6.033-3.347.033a.261.261,0,0,1-.282-.25c0-.119.1-.239.315-.239.771,0,2.532-.033,3.314-.033,0-.337-.011-.63-.011-.793-.011-.445-.218-.467-1.032-.467-.772,0-1.825.033-2.488.065h-.022a.249.249,0,0,1-.282-.25.257.257,0,0,1,.282-.261c.641-.022,1.586-.043,2.358-.043.3,0,.576,0,.8.011a.845.845,0,0,1,.945.88v2.39c-.01.608-.445.88-1.065.913-.858.043-2.26.043-3.085.043a.293.293,0,0,1-.326-.282.267.267,0,0,1,.293-.261Z" transform="translate(-535.979 -317.578)" fill="#1a1311"/>
      <path id="パス_61" data-name="パス 61" d="M604.124,314.724a.308.308,0,0,1-.315-.315.3.3,0,0,1,.315-.3c1.01-.043,2.347-.065,3.531-.065.511,0,1,0,1.423.011.63.011,1,.358,1,.858a1.365,1.365,0,0,1-.076.4,8.28,8.28,0,0,1-5.117,5.41.642.642,0,0,1-.228.043.316.316,0,0,1-.348-.3.369.369,0,0,1,.293-.348A7.17,7.17,0,0,0,609.35,315c0-.359-.218-.38-1.054-.38-1.151,0-2.824.065-4.161.109Zm6.453-.75a3.424,3.424,0,0,0-1.065-.771.2.2,0,0,1-.141-.185.256.256,0,0,1,.272-.228c.293,0,1.391.641,1.391,1.01a.274.274,0,0,1-.261.272A.248.248,0,0,1,610.577,313.974Zm.891-.793a3.5,3.5,0,0,0-1.076-.76.213.213,0,0,1-.141-.185.256.256,0,0,1,.271-.228c.163,0,1.413.587,1.413.989a.278.278,0,0,1-.272.282A.263.263,0,0,1,611.468,313.181Z" transform="translate(-549.859 -312.008)" fill="#1a1311"/>
    </g>
    <g id="グループ_54" data-name="グループ 54" transform="translate(255.51 1317.217)">
      <path id="パス_62" data-name="パス 62" d="M478.733,349.928a1.418,1.418,0,0,1,.725.175.143.143,0,0,0,.076.023.113.113,0,0,0,.07-.023.754.754,0,0,1,.45-.158c.234,0,.269.1.269.175a.152.152,0,0,1-.152.158c-.011,0-.029-.006-.041-.006a.5.5,0,0,0-.094-.006c-.193,0-.3.1-.3.17a.148.148,0,0,0,.012.041.932.932,0,0,1,.07.374c0,.509-.381.872-1.065.9-.387.018-.744.2-.744.433,0,.187.281.2.562.2a5.439,5.439,0,0,1,.948.029.8.8,0,0,1,.784.761c0,.591-.568,1.036-1.469,1.036-.638,0-1.329-.281-1.329-.872a.773.773,0,0,1,.55-.691c.041-.018.064-.023.064-.029s-.035-.006-.088-.024a.421.421,0,0,1-.346-.392c0-.117.041-.346.409-.533.041-.023.059-.035.059-.047s-.035-.023-.076-.047a.833.833,0,0,1-.415-.72.965.965,0,0,1,1.059-.931Zm.2,2.745c-.093,0-.187,0-.263.006-.4.023-.842.269-.842.643,0,.275.281.58.965.58.609,0,1.165-.246,1.165-.714C479.956,352.679,479.342,352.673,478.932,352.673Zm-.193-2.476a.676.676,0,0,0-.749.644c0,.638.679.638.732.638.077,0,.773-.029.773-.644S478.833,350.2,478.739,350.2Z" transform="translate(-477.504 -348.348)" fill="#1a1311"/>
      <path id="パス_63" data-name="パス 63" d="M491.154,351.285a1.359,1.359,0,1,1,1.352,1.4A1.332,1.332,0,0,1,491.154,351.285Zm2.37,0a1.018,1.018,0,1,0-1.019,1.088A1.025,1.025,0,0,0,493.524,351.285Z" transform="translate(-485.45 -348.323)" fill="#1a1311"/>
      <path id="パス_64" data-name="パス 64" d="M505.75,346.73a.262.262,0,0,1-.275-.287.277.277,0,0,1,.281-.269.269.269,0,0,1,.287.269A.284.284,0,0,1,505.75,346.73Zm.193,3.588a.185.185,0,0,1-.369,0c0-.5.006-1.182.006-1.727,0-.275,0-.515-.006-.679v-.006a.173.173,0,0,1,.188-.164.166.166,0,0,1,.181.158v.006c-.006.246-.012.726-.012,1.229,0,.415.006.849.012,1.176Z" transform="translate(-493.788 -346.162)" fill="#1a1311"/>
      <path id="パス_65" data-name="パス 65" d="M517.116,352.5c.006-.246.012-.7.012-1.071,0-.24-.006-.445-.012-.539a.638.638,0,0,0-.656-.673.872.872,0,0,0-.883.784c-.006.181-.012.5-.012.908,0,.187,0,.38.006.591v.006a.156.156,0,0,1-.17.158.171.171,0,0,1-.181-.164V352.5c.012-.474.023-1.018.023-1.516,0-.328-.006-.632-.012-.89v-.006a.172.172,0,0,1,.187-.152.151.151,0,0,1,.164.158v.223a.034.034,0,0,0,.006.023.032.032,0,0,0,.024-.018,1.081,1.081,0,0,1,.866-.422.938.938,0,0,1,.978.936c.005.187.012.621.012,1.024,0,.246,0,.486-.006.644a.159.159,0,0,1-.17.17.166.166,0,0,1-.175-.164Z" transform="translate(-499.461 -348.331)" fill="#1a1311"/>
      <path id="パス_66" data-name="パス 66" d="M528.912,350.362c.018-.755.023-1.914.023-2.838,0-.463,0-.867-.006-1.136a.176.176,0,0,1,.351,0v.006c-.012.41-.012,1.159-.012,1.691v.615c0,.064.029.088.088.088a.2.2,0,0,0,.117-.041c.357-.246.937-.661,1.276-.919a.189.189,0,0,1,.112-.041.192.192,0,0,1,.181.193.139.139,0,0,1-.064.123c-.357.246-.872.6-1.195.8-.035.024-.052.041-.052.058s.018.035.047.065c.3.293,1.089.966,1.288,1.153a.2.2,0,0,1,.07.152.193.193,0,0,1-.187.188.17.17,0,0,1-.129-.053c-.181-.176-1.042-1-1.311-1.282a.188.188,0,0,0-.163-.07c-.094,0-.094.041-.094.6,0,.158,0,.357.006.632a.163.163,0,0,1-.176.164.151.151,0,0,1-.17-.146Z" transform="translate(-507.432 -346.195)" fill="#1a1311"/>
      <path id="パス_67" data-name="パス 67" d="M540.984,354.229a.175.175,0,0,1-.188-.175.179.179,0,0,1,.2-.17c.474,0,.679-.322.989-1.042a.2.2,0,0,0,.018-.076.29.29,0,0,0-.029-.112c-.181-.45-.843-2.019-.989-2.417a.186.186,0,0,1-.012-.076.17.17,0,0,1,.176-.164.167.167,0,0,1,.164.117c.146.392.655,1.7.825,2.09.023.053.041.082.059.082a18.81,18.81,0,0,0,.866-2.154.177.177,0,0,1,.176-.129.179.179,0,0,1,.193.17.2.2,0,0,1-.018.076c-.287.7-.819,1.955-1.176,2.81C541.932,353.8,541.628,354.229,540.984,354.229Z" transform="translate(-514.35 -348.388)" fill="#1a1311"/>
      <path id="パス_68" data-name="パス 68" d="M554.208,351.285a1.359,1.359,0,1,1,1.353,1.4A1.333,1.333,0,0,1,554.208,351.285Zm2.371,0a1.018,1.018,0,1,0-1.018,1.088A1.024,1.024,0,0,0,556.579,351.285Z" transform="translate(-522.158 -348.323)" fill="#1a1311"/>
      <path id="パス_69" data-name="パス 69" d="M579.482,346.425c-.012.527-.012,1.153-.012,1.756,0,.492,0,.966.006,1.346v.018a.971.971,0,0,1-1.077,1.007,1.84,1.84,0,0,1-.521-.076.214.214,0,0,1-.164-.205.178.178,0,0,1,.188-.187.36.36,0,0,1,.105.018,1.374,1.374,0,0,0,.439.082.606.606,0,0,0,.656-.667c.006-.351.006-.773.006-1.217,0-.626-.006-1.294-.018-1.862v-.006a.187.187,0,0,1,.2-.187.177.177,0,0,1,.193.176Z" transform="translate(-535.842 -346.203)" fill="#1a1311"/>
      <path id="パス_70" data-name="パス 70" d="M590.146,348.335a2.126,2.126,0,1,1,4.249,0,2.125,2.125,0,1,1-4.249,0Zm3.869,0a1.747,1.747,0,1,0-1.744,1.843A1.75,1.75,0,0,0,594.015,348.335Z" transform="translate(-543.08 -346.146)" fill="#1a1311"/>
      <path id="パス_71" data-name="パス 71" d="M610.107,350.507c-.1.006-.31.012-.492.012-.409,0-1.018-.012-1.048-.644-.012-.246-.012-.685-.012-1.153,0-.708.006-1.5.018-1.879.018-.65.591-.656,1.048-.656.123,0,.24.006.322.012.89.058,1.223.527,1.223.983a.951.951,0,0,1-.7.931c-.047.012-.071.018-.071.024a.637.637,0,0,0,.071.011,1.084,1.084,0,0,1,.971,1.118A1.273,1.273,0,0,1,610.107,350.507Zm-.55-2.183c-.638,0-.656,0-.656.14,0,.989,0,1.212.012,1.34.029.333.252.4.714.4.158,0,.328-.012.462-.018a.961.961,0,0,0,.971-.948.909.909,0,0,0-.942-.9C609.961,348.324,609.756,348.324,609.557,348.324Zm.333-1.809c-.018,0-.187-.006-.351-.006-.451,0-.6.088-.621.4-.011.146-.005.644-.011.995,0,.111.018.117.556.117.182,0,.369,0,.48-.006a.857.857,0,0,0,.872-.8C610.815,346.861,610.529,346.516,609.891,346.516Z" transform="translate(-553.797 -346.17)" fill="#1a1311"/>
    </g>
  </g>
</svg>
