<svg xmlns="http://www.w3.org/2000/svg" width="135.634" height="141.529" viewBox="0 0 135.634 141.529">
  <g id="グループ_59" data-name="グループ 59" transform="translate(-191 -1294)">
    <g id="グループ_52" data-name="グループ 52" transform="translate(221.248 1294)">
      <path id="パス_48" data-name="パス 48" d="M543.608,283.872a35.744,35.744,0,1,1,2.516-71.4l-.261,3.644A32.1,32.1,0,1,0,567.288,226.5l2.7-2.463a35.748,35.748,0,0,1-26.376,59.838Z" transform="translate(-507.824 -205.788)" fill="#1a1311"/>
      <path id="パス_49" data-name="パス 49" d="M519.977,259.434a15.892,15.892,0,0,1-10.146-3.944l2.313-2.827c5.425,4.44,9.9,2.864,9.947,2.848,2.233-.777,3.46-1.824,3.678-3.124.58-3.464-4.887-9.226-8.469-12.046l-3.944-3.1,5.016-.157c4.776-.15,7.157-4.378,8.265-7.483a39.307,39.307,0,0,1-10.274,1.116l.124-3.65c.079,0,7.851.236,11.923-2.056l3.225-1.814-.523,3.664c-.556,3.893-3.068,10.717-8.758,13.062,3.2,3.055,7.8,8.369,7.016,13.071-.456,2.716-2.49,4.721-6.048,5.959A10.426,10.426,0,0,1,519.977,259.434Z" transform="translate(-507.999 -206.729)" fill="#1a1311"/>
      <path id="パス_50" data-name="パス 50" d="M539.786,225.135l-1.739-3.643c12.581-6,13.379-15.914,13.407-16.333l4.029.235C555.454,205.908,554.614,218.058,539.786,225.135Z" transform="translate(-510.455 -205.159)" fill="#1a1311"/>
      <path id="パス_51" data-name="パス 51" d="M555.061,223.533l-2.239-3.359c3.689-2.459,6.076-8.7,6.1-8.763l3.778,1.42C562.585,213.137,559.84,220.346,555.061,223.533Z" transform="translate(-511.741 -205.703)" fill="#1a1311"/>
      <path id="パス_52" data-name="パス 52" d="M562.9,226.354,560.659,223c3.69-2.46,6.076-8.7,6.1-8.762l3.779,1.419C570.422,215.959,567.678,223.168,562.9,226.354Z" transform="translate(-512.423 -205.949)" fill="#1a1311"/>
      <rect id="長方形_180" data-name="長方形 180" width="34.918" height="4.036" transform="translate(32.182 27.298)" fill="#1a1311"/>
      <rect id="長方形_181" data-name="長方形 181" width="35.777" height="4.036" transform="translate(33.327 35.994)" fill="#1a1311"/>
      <rect id="長方形_182" data-name="長方形 182" width="41.787" height="4.036" transform="translate(27.317 43.899)" fill="#1a1311"/>
      <path id="パス_53" data-name="パス 53" d="M538.523,287.611c-11.361-6.385-9.524-19.078-6.965-24.9l3.695,1.624-1.847-.813,1.849.809c-.24.551-5.748,13.578,5.246,19.756Z" transform="translate(-509.723 -210.169)" fill="#1a1311"/>
      <path id="パス_54" data-name="パス 54" d="M557.27,287.125c-11.089-.885-14.772-11.705-15.171-17.3l4.027-.287-2.013.143,2.012-.148a20.911,20.911,0,0,0,1.906,6.725c2.049,4.2,5.265,6.5,9.559,6.844Z" transform="translate(-510.808 -210.762)" fill="#1a1311"/>
      <path id="パス_55" data-name="パス 55" d="M569.645,281.116c-10.256-.817-13.661-10.81-14.028-15.98l4.026-.287-2.013.143,2.012-.148c.036.469.98,11.5,10.325,12.247Z" transform="translate(-511.984 -210.354)" fill="#1a1311"/>
    </g>
    <g id="グループ_53" data-name="グループ 53" transform="translate(191 1391.549)">
      <path id="パス_56" data-name="パス 56" d="M482.028,330.734c-4.368,0-7.335-1.852-7.335-2.944a.677.677,0,0,1,1.211-.427c1.187,1.354,3.324,1.947,5.626,1.947a15.141,15.141,0,0,0,4.486-.713,1.319,1.319,0,0,1,.4-.07.69.69,0,0,1,.735.711.88.88,0,0,1-.711.832A15.015,15.015,0,0,1,482.028,330.734Zm2.682-12.487a.881.881,0,0,1-.236-.024,19.519,19.519,0,0,0-3.965-.4,20.147,20.147,0,0,0-3.584.332.657.657,0,0,1-.214.024.625.625,0,0,1-.665-.617c0-.332.237-.688.807-.783a30.027,30.027,0,0,1,4.084-.261c3.988,0,4.557.451,4.557,1.021A.748.748,0,0,1,484.71,318.247Zm2.445-1.8a7.8,7.8,0,0,0-2.112-1.923.43.43,0,0,1-.237-.38.513.513,0,0,1,.546-.5c.712,0,2.848,1.733,2.848,2.469a.6.6,0,0,1-.594.593A.516.516,0,0,1,487.155,316.443Zm2.232-1.424a7.671,7.671,0,0,0-2.161-1.923.473.473,0,0,1-.261-.4.5.5,0,0,1,.547-.451c.664,0,2.9,1.614,2.9,2.4a.615.615,0,0,1-.594.641A.5.5,0,0,1,489.387,315.019Z" transform="translate(-474.693 -312.028)" fill="#1a1311"/>
      <path id="パス_57" data-name="パス 57" d="M500.4,312.58c1.258,0,2.73.024,2.73,1.59a12.094,12.094,0,0,1-1.068,3.252,3.032,3.032,0,0,0-.309,1.139,2.839,2.839,0,0,0,.546,1.424,5.923,5.923,0,0,1,1.021,3.3c0,3.252-2.681,3.252-2.9,3.252-1.044,0-1.187-.332-1.187-.665,0-.309.19-.593.452-.593.047,0,.07.024.118.024a2.8,2.8,0,0,0,.593.095c1.116,0,1.733-1.044,1.733-2.16a5.952,5.952,0,0,0-1.044-3.157,2.663,2.663,0,0,1-.475-1.424,4.17,4.17,0,0,1,.309-1.353,13.956,13.956,0,0,0,.9-2.991c0-.593-.451-.688-1.186-.688-.333,0-.713.024-.974.024-.688.024-.973.4-.973,1.068-.048,3.94-.024,11.512-.048,17.186a.6.6,0,0,1-.617.641.629.629,0,0,1-.665-.641c0-4.392.047-12.8.119-17.4C497.531,312.58,498.813,312.58,500.4,312.58Zm1,18.586a.464.464,0,0,1,.213-.4,6.092,6.092,0,0,0,2.185-2.8.516.516,0,0,1,.474-.355.615.615,0,0,1,.594.57c0,.854-2.018,3.583-2.873,3.583A.6.6,0,0,1,501.4,331.166Zm3.868-8.5a.475.475,0,0,1,0-.949h8.95c0-.332-.025-.617-.025-.831-.047-.736-.545-.973-1.233-1-.594-.024-1.852-.024-3.228-.024-1.852,0-3.917,0-4.795.024a.475.475,0,1,1,0-.95c.925-.024,3.014-.024,4.937-.024h2.183a17.332,17.332,0,0,0,1.8-3.7.494.494,0,0,1,.5-.309c.332,0,.712.214.712.546a16.068,16.068,0,0,1-1.829,3.513c2.089.095,2.089,1.163,2.089,2.943,0,.617,0,1.234-.023,1.78-.024,1.211-.688,1.828-2.16,1.852-1.164.024-3.228.047-5.1.047-1.306,0-2.54-.024-3.253-.024a.467.467,0,0,1-.475-.5.456.456,0,0,1,.451-.475h.024c.784.024,2.089.024,3.466.024,1.876,0,3.845,0,4.7-.024,1.233-.024,1.258-.332,1.258-1.923Zm.808-8.213c-1.329,0-1.686-.024-1.686-.593a.542.542,0,0,1,.57-.546h.048c.592.024,1.233.047,1.874.047a37.888,37.888,0,0,0,7.478-.712c.047,0,.071-.024.119-.024a.663.663,0,0,1,.617.617c0,.237-.143.427-.523.522A45.9,45.9,0,0,1,506.077,314.455Zm-.025,3.679a5.594,5.594,0,0,0-1.211-1.78.429.429,0,0,1-.119-.309.559.559,0,0,1,.594-.475c.688,0,1.8,1.875,1.8,2.231a.67.67,0,0,1-.641.641A.469.469,0,0,1,506.053,318.134Zm3.372,14c-2.256,0-3.253-.5-3.253-2.16v-1.733c0-1.187,0-1.519.594-1.519a.527.527,0,0,1,.593.5c0,.664-.023,2.42-.023,2.682.023.688.236,1.162,2.112,1.162,2.375,0,2.778-.426,2.8-1.566a.505.505,0,0,1,.547-.523.615.615,0,0,1,.665.547C513.459,331.713,511.893,332.139,509.424,332.139Zm1.233-3.608a6.078,6.078,0,0,0-2.112-1.733.326.326,0,0,1-.19-.309.6.6,0,0,1,.593-.522c.451,0,2.707,1.329,2.707,2.184a.621.621,0,0,1-.593.594A.532.532,0,0,1,510.658,328.531ZM509.471,317.8a6.4,6.4,0,0,0-.877-2.041.285.285,0,0,1-.048-.19c0-.237.284-.451.57-.451.782,0,1.471,2.136,1.471,2.445a.669.669,0,0,1-.64.641A.475.475,0,0,1,509.471,317.8Zm6.956,12.818a7.964,7.964,0,0,0-2.492-2.4.5.5,0,0,1-.238-.4.578.578,0,0,1,.594-.522c.617,0,3.3,2.042,3.3,2.968a.658.658,0,0,1-.641.664A.623.623,0,0,1,516.427,330.62Z" transform="translate(-476.666 -312.058)" fill="#1a1311"/>
      <path id="パス_58" data-name="パス 58" d="M534.442,322.3l-.025,3.038c.949,0,1.946.024,2.992.048,1.519.024,2.136.878,2.183,1.78.025.452.048.9.048,1.377,0,.451-.024.9-.048,1.4-.047.973-.688,1.852-2.3,1.9-1.282.047-2.375.047-3.467.047-1.068,0-2.112,0-3.347-.047-1.567-.047-2.3-.855-2.35-1.876-.024-.4-.024-.806-.024-1.21,0-.547,0-1.045.024-1.519.048-.927.689-1.8,2.3-1.852.9-.024,1.828-.048,2.777-.048l-.023-3.038-7.051.024c-.214,3.181-.878,6.29-2.682,8.641a.749.749,0,0,1-.617.331.635.635,0,0,1-.665-.593.755.755,0,0,1,.142-.4c2.279-3.062,2.659-6.813,2.659-10.588,0-1.59-.071-3.181-.095-4.747v-.047a2.1,2.1,0,0,1,2.326-2.136c1.519-.047,3.418-.047,5.342-.047,1.9,0,3.845,0,5.411.047,2.113.024,2.208,1.044,2.208,2.777,0,1.116-.213,2.136-2.444,2.16-2.089.024-4.962.071-7.881.071-1.21,0-2.445,0-3.608-.024,0,.475.024.949.024,1.424,0,.665-.024,1.329-.047,2.018l6.98.024v-2.469a.573.573,0,0,1,.617-.57.58.58,0,0,1,.641.57v2.469l6.813-.024a.558.558,0,1,1,0,1.116Zm-8.238-5.626c1.663.024,3.442.024,5.175.024,2.445,0,4.724-.024,6.314-.071,1.117-.024,1.235-.57,1.235-1.4,0-.973-.1-1.377-1.282-1.4-1.33-.024-2.967-.047-4.63-.047-2.018,0-4.035.024-5.483.047a1.259,1.259,0,0,0-1.353,1.353v.071Zm3.11,11.916c0,1.543.118,2.185,1.352,2.208.878.024,1.828.048,2.826.048,1.187,0,2.42-.025,3.56-.048,1.188-.023,1.329-.593,1.329-2.065,0-.427,0-.855-.023-1.187-.047-1.139-.427-1.163-4.486-1.163-1.117,0-2.232,0-3.205.048C529.432,326.456,529.315,327.05,529.315,328.592Z" transform="translate(-478.825 -312.071)" fill="#1a1311"/>
      <path id="パス_59" data-name="パス 59" d="M555.425,322.356a.727.727,0,0,1-.286,1.377.768.768,0,0,1-.427-.142,9.334,9.334,0,0,0-3.465-1.353.51.51,0,0,1-.452-.522.673.673,0,0,1,.688-.688A14.321,14.321,0,0,1,555.425,322.356Zm-1.757,8.783a.766.766,0,0,1-.783-.736.71.71,0,0,1,.593-.688c5.317-1.424,10.326-6.005,12.89-11.489a.7.7,0,0,1,1.329.285,1.159,1.159,0,0,1-.142.5C562.878,328.457,554.189,331.139,553.667,331.139Zm3.965-11.7a9.909,9.909,0,0,0-3.11-2.113.549.549,0,0,1-.356-.5.663.663,0,0,1,.665-.665c.333,0,4.035,1.757,4.035,2.777a.74.74,0,0,1-.712.76A.783.783,0,0,1,557.632,319.437Zm6.74-2.848a7.4,7.4,0,0,0-2.3-1.685.441.441,0,0,1-.309-.4.56.56,0,0,1,.593-.5c.523,0,3.015,1.329,3.015,2.208a.6.6,0,0,1-.57.593A.54.54,0,0,1,564.372,316.588Zm1.971-1.733a7.644,7.644,0,0,0-2.351-1.662.5.5,0,0,1-.332-.427.561.561,0,0,1,.594-.5c.426,0,3.085,1.305,3.085,2.184a.608.608,0,0,1-.592.617A.531.531,0,0,1,566.344,314.855Z" transform="translate(-481.317 -312.031)" fill="#1a1311"/>
      <path id="パス_60" data-name="パス 60" d="M580.632,329.647c.76.023,1.733.047,2.73.047,4.582,0,5.1-.047,5.152-1.115.024-.452.024-1.259.024-2.113-2.35.047-5.674.071-7.312.071a.571.571,0,0,1-.617-.546c0-.261.214-.522.688-.522,1.685,0,5.532-.071,7.241-.071,0-.736-.024-1.377-.024-1.733-.025-.973-.476-1.021-2.255-1.021-1.686,0-3.988.071-5.437.142h-.047a.545.545,0,0,1-.617-.546.561.561,0,0,1,.617-.57c1.4-.047,3.466-.095,5.152-.095.664,0,1.258,0,1.756.024a1.847,1.847,0,0,1,2.065,1.923v5.222c-.023,1.329-.972,1.924-2.326,1.994-1.874.095-4.937.095-6.74.095a.64.64,0,0,1-.713-.616.583.583,0,0,1,.641-.57Z" transform="translate(-483.856 -312.841)" fill="#1a1311"/>
      <path id="パス_61" data-name="パス 61" d="M604.5,317.942a.672.672,0,0,1-.688-.688.653.653,0,0,1,.688-.665c2.208-.095,5.127-.142,7.715-.142,1.117,0,2.185,0,3.11.024,1.377.024,2.185.783,2.185,1.875a2.984,2.984,0,0,1-.167.878c-1.638,4.724-4.605,9.329-11.18,11.821a1.4,1.4,0,0,1-.5.095.69.69,0,0,1-.76-.665.805.805,0,0,1,.641-.76c7.762-2.469,10.374-9.993,10.374-11.18,0-.783-.476-.831-2.3-.831-2.516,0-6.171.142-9.091.237Zm14.1-1.638a7.481,7.481,0,0,0-2.326-1.685.44.44,0,0,1-.308-.4.559.559,0,0,1,.593-.5c.641,0,3.038,1.4,3.038,2.208a.6.6,0,0,1-.57.593A.541.541,0,0,1,618.6,316.3Zm1.947-1.733a7.637,7.637,0,0,0-2.35-1.662.465.465,0,0,1-.309-.4.559.559,0,0,1,.593-.5c.357,0,3.087,1.282,3.087,2.16a.608.608,0,0,1-.593.617A.575.575,0,0,1,620.544,314.572Z" transform="translate(-485.931 -312.008)" fill="#1a1311"/>
    </g>
    <g id="グループ_54" data-name="グループ 54" transform="translate(193.566 1422.715)">
      <path id="パス_62" data-name="パス 62" d="M480.19,349.928a3.1,3.1,0,0,1,1.585.383.312.312,0,0,0,.167.051.247.247,0,0,0,.153-.051,1.648,1.648,0,0,1,.984-.345c.511,0,.588.217.588.383a.333.333,0,0,1-.332.346c-.025,0-.063-.014-.089-.014a1.1,1.1,0,0,0-.2-.013c-.422,0-.665.218-.665.371a.324.324,0,0,0,.026.09,2.037,2.037,0,0,1,.153.818c0,1.113-.832,1.905-2.327,1.956-.845.038-1.625.447-1.625.947,0,.409.614.447,1.228.447a11.883,11.883,0,0,1,2.072.064,1.757,1.757,0,0,1,1.714,1.662c0,1.292-1.241,2.264-3.21,2.264-1.394,0-2.9-.614-2.9-1.906a1.689,1.689,0,0,1,1.2-1.509c.089-.038.141-.051.141-.063s-.077-.014-.192-.052a.921.921,0,0,1-.755-.856c0-.256.09-.755.895-1.164.09-.051.129-.077.129-.1s-.077-.051-.167-.1a1.821,1.821,0,0,1-.908-1.573,2.109,2.109,0,0,1,2.314-2.033Zm.434,6c-.2,0-.409,0-.575.013-.882.05-1.841.588-1.841,1.406,0,.6.614,1.266,2.109,1.266,1.33,0,2.545-.537,2.545-1.56C482.862,355.939,481.52,355.926,480.624,355.926Zm-.422-5.41a1.478,1.478,0,0,0-1.637,1.407c0,1.394,1.484,1.394,1.6,1.394.167,0,1.688-.064,1.688-1.407S480.407,350.516,480.2,350.516Z" transform="translate(-477.504 -346.475)" fill="#1a1311"/>
      <path id="パス_63" data-name="パス 63" d="M491.154,352.943a2.968,2.968,0,1,1,2.953,3.069A2.911,2.911,0,0,1,491.154,352.943Zm5.179,0a2.224,2.224,0,1,0-2.226,2.378A2.239,2.239,0,0,0,496.333,352.943Z" transform="translate(-478.692 -346.472)" fill="#1a1311"/>
      <path id="パス_64" data-name="パス 64" d="M506.077,347.388a.573.573,0,0,1-.6-.626.605.605,0,0,1,.615-.588.588.588,0,0,1,.626.588A.621.621,0,0,1,506.077,347.388Zm.422,7.84a.4.4,0,0,1-.806,0c0-1.086.014-2.583.014-3.772,0-.6,0-1.125-.014-1.484v-.013a.378.378,0,0,1,.41-.358.364.364,0,0,1,.4.345v.013c-.013.538-.026,1.586-.026,2.686,0,.907.013,1.854.026,2.57Z" transform="translate(-479.939 -346.148)" fill="#1a1311"/>
      <path id="パス_65" data-name="パス 65" d="M519.363,355.59c.013-.537.027-1.534.027-2.34,0-.524-.014-.972-.027-1.177a1.394,1.394,0,0,0-1.432-1.471,1.905,1.905,0,0,0-1.93,1.714c-.014.4-.027,1.1-.027,1.983,0,.409,0,.831.013,1.291v.013a.342.342,0,0,1-.371.345.374.374,0,0,1-.4-.358v-.013c.026-1.035.051-2.225.051-3.312,0-.716-.013-1.38-.026-1.944v-.013a.375.375,0,0,1,.409-.332.331.331,0,0,1,.358.345v.487a.075.075,0,0,0,.013.051.07.07,0,0,0,.052-.038,2.363,2.363,0,0,1,1.892-.921,2.049,2.049,0,0,1,2.136,2.046c.012.409.026,1.356.026,2.238,0,.538,0,1.062-.014,1.407a.348.348,0,0,1-.371.372.363.363,0,0,1-.384-.359Z" transform="translate(-480.787 -346.473)" fill="#1a1311"/>
      <path id="パス_66" data-name="パス 66" d="M528.912,355.258c.038-1.649.051-4.181.051-6.2,0-1.011,0-1.893-.013-2.481a.386.386,0,0,1,.767,0v.013c-.026.9-.026,2.533-.026,3.7v1.343c0,.141.064.192.192.192a.44.44,0,0,0,.256-.089c.781-.537,2.047-1.445,2.788-2.008a.413.413,0,0,1,.244-.089.42.42,0,0,1,.4.422.3.3,0,0,1-.14.268c-.781.538-1.906,1.3-2.61,1.752-.076.052-.114.089-.114.128s.038.077.1.142c.665.639,2.378,2.11,2.814,2.519a.425.425,0,0,1,.153.332.421.421,0,0,1-.409.41.372.372,0,0,1-.282-.115c-.4-.384-2.276-2.187-2.865-2.8a.41.41,0,0,0-.357-.153c-.205,0-.205.089-.205,1.317,0,.345,0,.78.014,1.38a.356.356,0,0,1-.384.358.329.329,0,0,1-.371-.32Z" transform="translate(-481.979 -346.153)" fill="#1a1311"/>
      <path id="パス_67" data-name="パス 67" d="M541.206,359.243a.383.383,0,0,1-.41-.383.39.39,0,0,1,.435-.371c1.036,0,1.484-.7,2.161-2.276a.441.441,0,0,0,.038-.166.634.634,0,0,0-.064-.244c-.4-.984-1.841-4.411-2.161-5.281a.405.405,0,0,1-.026-.166.371.371,0,0,1,.384-.358.364.364,0,0,1,.359.256c.319.857,1.432,3.721,1.8,4.566.051.115.089.179.129.179a41.09,41.09,0,0,0,1.892-4.706.387.387,0,0,1,.384-.281.392.392,0,0,1,.422.371.442.442,0,0,1-.038.166c-.626,1.535-1.79,4.272-2.57,6.139C543.277,358.3,542.613,359.243,541.206,359.243Z" transform="translate(-483.013 -346.481)" fill="#1a1311"/>
      <path id="パス_68" data-name="パス 68" d="M554.208,352.943a2.969,2.969,0,1,1,2.955,3.069A2.911,2.911,0,0,1,554.208,352.943Zm5.18,0a2.224,2.224,0,1,0-2.225,2.378A2.239,2.239,0,0,0,559.388,352.943Z" transform="translate(-484.181 -346.472)" fill="#1a1311"/>
      <path id="パス_69" data-name="パス 69" d="M581.577,346.64c-.026,1.151-.026,2.52-.026,3.836,0,1.075,0,2.111.013,2.941v.038a2.122,2.122,0,0,1-2.353,2.2,4.02,4.02,0,0,1-1.138-.166.467.467,0,0,1-.359-.448.389.389,0,0,1,.41-.409.787.787,0,0,1,.23.038,3,3,0,0,0,.959.179,1.323,1.323,0,0,0,1.432-1.458c.013-.767.013-1.688.013-2.659,0-1.369-.013-2.827-.038-4.067v-.013a.41.41,0,0,1,.435-.409.387.387,0,0,1,.423.383Z" transform="translate(-486.227 -346.154)" fill="#1a1311"/>
      <path id="パス_70" data-name="パス 70" d="M590.146,350.929a4.644,4.644,0,1,1,9.285,0,4.644,4.644,0,1,1-9.285,0Zm8.454,0a3.817,3.817,0,1,0-3.812,4.028A3.824,3.824,0,0,0,598.6,350.929Z" transform="translate(-487.309 -346.146)" fill="#1a1311"/>
      <path id="パス_71" data-name="パス 71" d="M611.945,355.625c-.217.014-.677.026-1.075.026-.895,0-2.224-.026-2.289-1.407-.025-.538-.025-1.5-.025-2.52,0-1.547.014-3.287.038-4.1.038-1.42,1.292-1.432,2.29-1.432.268,0,.524.013.7.026,1.944.128,2.672,1.151,2.672,2.148a2.078,2.078,0,0,1-1.521,2.033c-.1.026-.154.038-.154.052a1.416,1.416,0,0,0,.154.025,2.369,2.369,0,0,1,2.123,2.443A2.782,2.782,0,0,1,611.945,355.625Zm-1.2-4.769c-1.395,0-1.433,0-1.433.307,0,2.161,0,2.648.026,2.929.064.729.55.869,1.56.869.345,0,.716-.026,1.01-.038a2.1,2.1,0,0,0,2.123-2.072,1.986,1.986,0,0,0-2.059-1.969C611.625,350.856,611.178,350.856,610.743,350.856Zm.729-3.952c-.038,0-.409-.013-.767-.013-.985,0-1.3.192-1.357.87-.025.319-.012,1.407-.025,2.174,0,.243.038.256,1.214.256.4,0,.806,0,1.049-.013a1.872,1.872,0,0,0,1.905-1.739C613.492,347.659,612.866,346.9,611.472,346.9Z" transform="translate(-488.911 -346.15)" fill="#1a1311"/>
    </g>
  </g>
</svg>
