<svg xmlns="http://www.w3.org/2000/svg" width="90.437" height="94.368" viewBox="0 0 90.437 94.368">
  <g id="グループ_58" data-name="グループ 58" transform="translate(-191 -1294)">
    <g id="グループ_52" data-name="グループ 52" transform="translate(211.168 1294)">
      <path id="パス_48" data-name="パス 48" d="M531.684,260.05a23.833,23.833,0,1,1,1.678-47.606l-.174,2.43a21.4,21.4,0,1,0,14.285,6.92l1.8-1.642a23.836,23.836,0,0,1-17.587,39.9Z" transform="translate(-507.824 -207.986)" fill="#1a1311"/>
      <path id="パス_49" data-name="パス 49" d="M516.6,247.358a10.6,10.6,0,0,1-6.765-2.63l1.543-1.885c3.617,2.96,6.6,1.91,6.632,1.9,1.489-.518,2.307-1.216,2.453-2.083.387-2.31-3.259-6.152-5.647-8.032l-2.63-2.068,3.344-.1c3.184-.1,4.772-2.919,5.511-4.99a26.208,26.208,0,0,1-6.85.744l.083-2.434c.053,0,5.235.157,7.95-1.371l2.151-1.21-.349,2.443c-.371,2.6-2.045,7.146-5.84,8.709,2.134,2.037,5.2,5.58,4.678,8.715-.3,1.811-1.661,3.148-4.033,3.973A6.952,6.952,0,0,1,516.6,247.358Z" transform="translate(-508.61 -212.216)" fill="#1a1311"/>
      <path id="パス_50" data-name="パス 50" d="M539.207,218.478l-1.16-2.429c8.388-4,8.921-10.611,8.939-10.89l2.686.156C549.654,205.658,549.093,213.76,539.207,218.478Z" transform="translate(-519.649 -205.159)" fill="#1a1311"/>
      <path id="パス_51" data-name="パス 51" d="M554.315,219.494l-1.493-2.24c2.46-1.64,4.051-5.8,4.067-5.843l2.519.947C559.332,212.562,557.5,217.369,554.315,219.494Z" transform="translate(-525.43 -207.606)" fill="#1a1311"/>
      <path id="パス_52" data-name="パス 52" d="M562.152,222.316l-1.493-2.24c2.461-1.64,4.051-5.8,4.067-5.842l2.52.946C567.169,215.384,565.339,220.191,562.152,222.316Z" transform="translate(-528.497 -208.71)" fill="#1a1311"/>
      <rect id="長方形_180" data-name="長方形 180" width="23.282" height="2.691" transform="translate(21.458 18.202)" fill="#1a1311"/>
      <rect id="長方形_181" data-name="長方形 181" width="23.855" height="2.691" transform="translate(22.222 24)" fill="#1a1311"/>
      <rect id="長方形_182" data-name="長方形 182" width="27.862" height="2.691" transform="translate(18.214 29.271)" fill="#1a1311"/>
      <path id="パス_53" data-name="パス 53" d="M535.561,279.315c-7.575-4.258-6.35-12.721-4.644-16.6l2.464,1.083-1.232-.542,1.233.539c-.16.368-3.833,9.054,3.5,13.173Z" transform="translate(-516.357 -227.679)" fill="#1a1311"/>
      <path id="パス_54" data-name="パス 54" d="M552.214,281.262c-7.394-.59-9.849-7.8-10.115-11.537l2.685-.191-1.342.1,1.342-.1a13.944,13.944,0,0,0,1.271,4.484,7.464,7.464,0,0,0,6.374,4.564Z" transform="translate(-521.235 -230.345)" fill="#1a1311"/>
      <path id="パス_55" data-name="パス 55" d="M564.971,275.694c-6.839-.545-9.109-7.208-9.354-10.655l2.685-.191-1.342.1,1.342-.1c.024.313.653,7.669,6.884,8.166Z" transform="translate(-526.524 -228.512)" fill="#1a1311"/>
    </g>
    <g id="グループ_53" data-name="グループ 53" transform="translate(191 1359.043)">
      <path id="パス_56" data-name="パス 56" d="M479.584,324.572c-2.912,0-4.891-1.235-4.891-1.963a.451.451,0,0,1,.807-.285,4.971,4.971,0,0,0,3.751,1.3,10.1,10.1,0,0,0,2.991-.475.88.88,0,0,1,.27-.047.46.46,0,0,1,.49.474.587.587,0,0,1-.474.555A10.011,10.011,0,0,1,479.584,324.572Zm1.788-8.326a.587.587,0,0,1-.158-.016,13.015,13.015,0,0,0-2.644-.269,13.434,13.434,0,0,0-2.39.222.438.438,0,0,1-.142.016.417.417,0,0,1-.443-.411c0-.222.158-.459.538-.522a20.027,20.027,0,0,1,2.723-.174c2.659,0,3.039.3,3.039.681A.5.5,0,0,1,481.372,316.246Zm1.63-1.2a5.2,5.2,0,0,0-1.408-1.282.287.287,0,0,1-.158-.253.342.342,0,0,1,.364-.332c.475,0,1.9,1.155,1.9,1.646a.4.4,0,0,1-.4.4A.344.344,0,0,1,483,315.043Zm1.488-.95a5.115,5.115,0,0,0-1.441-1.282.315.315,0,0,1-.174-.269.33.33,0,0,1,.365-.3c.443,0,1.931,1.076,1.931,1.6a.41.41,0,0,1-.4.427A.337.337,0,0,1,484.491,314.094Z" transform="translate(-474.693 -312.1)" fill="#1a1311"/>
      <path id="パス_57" data-name="パス 57" d="M499.391,312.58c.839,0,1.82.016,1.82,1.06a8.064,8.064,0,0,1-.712,2.168,2.022,2.022,0,0,0-.206.76,1.893,1.893,0,0,0,.364.95,3.95,3.95,0,0,1,.681,2.2,1.911,1.911,0,0,1-1.931,2.168c-.7,0-.791-.222-.791-.443,0-.206.127-.4.3-.4.031,0,.047.016.078.016a1.864,1.864,0,0,0,.4.063c.744,0,1.155-.7,1.155-1.44a3.969,3.969,0,0,0-.7-2.105,1.776,1.776,0,0,1-.317-.95,2.781,2.781,0,0,1,.206-.9,9.3,9.3,0,0,0,.6-1.994c0-.4-.3-.459-.791-.459-.222,0-.475.016-.65.016-.459.016-.649.269-.649.712-.032,2.627-.016,7.676-.032,11.459a.4.4,0,0,1-.411.427.419.419,0,0,1-.443-.427c0-2.929.032-8.531.079-11.6C497.476,312.58,498.33,312.58,499.391,312.58Zm.665,12.393a.309.309,0,0,1,.142-.268,4.062,4.062,0,0,0,1.457-1.868.344.344,0,0,1,.316-.237.41.41,0,0,1,.4.38c0,.569-1.345,2.389-1.916,2.389A.4.4,0,0,1,500.056,324.973Zm2.579-5.666a.317.317,0,0,1,0-.633H508.6c0-.222-.016-.411-.016-.554-.031-.491-.363-.649-.822-.665-.4-.016-1.235-.016-2.153-.016-1.235,0-2.611,0-3.2.016a.317.317,0,1,1,0-.633c.617-.016,2.009-.016,3.292-.016h1.456a11.557,11.557,0,0,0,1.2-2.469.33.33,0,0,1,.332-.206c.222,0,.475.142.475.364a10.714,10.714,0,0,1-1.219,2.342c1.393.063,1.393.776,1.393,1.963,0,.412,0,.823-.015,1.187-.016.807-.459,1.219-1.44,1.235-.776.016-2.153.032-3.4.032-.871,0-1.693-.016-2.169-.016a.311.311,0,0,1-.317-.332.3.3,0,0,1,.3-.317h.016c.523.016,1.393.016,2.311.016,1.251,0,2.564,0,3.134-.016.822-.016.839-.222.839-1.282Zm.539-5.476c-.886,0-1.124-.016-1.124-.4a.361.361,0,0,1,.38-.364h.032c.4.016.822.032,1.25.032a25.261,25.261,0,0,0,4.986-.475c.032,0,.047-.016.079-.016a.442.442,0,0,1,.411.412c0,.158-.1.285-.349.348A30.609,30.609,0,0,1,503.174,313.83Zm-.016,2.453a3.73,3.73,0,0,0-.807-1.187.286.286,0,0,1-.079-.206.372.372,0,0,1,.4-.317c.459,0,1.2,1.25,1.2,1.488a.447.447,0,0,1-.427.427A.313.313,0,0,1,503.158,316.284Zm2.248,9.338c-1.5,0-2.169-.332-2.169-1.44v-1.155c0-.791,0-1.013.4-1.013a.351.351,0,0,1,.4.333c0,.443-.015,1.614-.015,1.788.015.458.158.775,1.408.775,1.583,0,1.852-.284,1.868-1.044a.337.337,0,0,1,.365-.349.41.41,0,0,1,.443.365C508.1,325.337,507.052,325.622,505.406,325.622Zm.822-2.406a4.053,4.053,0,0,0-1.408-1.155.217.217,0,0,1-.127-.206.4.4,0,0,1,.4-.348c.3,0,1.8.886,1.8,1.456a.414.414,0,0,1-.4.4A.355.355,0,0,1,506.228,323.216Zm-.791-7.154a4.266,4.266,0,0,0-.585-1.361.19.19,0,0,1-.032-.127c0-.158.189-.3.38-.3.522,0,.981,1.424.981,1.63a.446.446,0,0,1-.427.427A.317.317,0,0,1,505.437,316.062Zm4.638,8.547a5.311,5.311,0,0,0-1.662-1.6.331.331,0,0,1-.159-.269.385.385,0,0,1,.4-.348c.412,0,2.2,1.362,2.2,1.979a.439.439,0,0,1-.427.443A.415.415,0,0,1,510.075,324.609Z" transform="translate(-483.564 -312.232)" fill="#1a1311"/>
      <path id="パス_58" data-name="パス 58" d="M530.352,319.114l-.016,2.026c.633,0,1.3.016,1.995.032,1.013.016,1.424.586,1.456,1.187.016.3.032.6.032.918,0,.3-.016.6-.032.934-.031.649-.459,1.235-1.535,1.267-.855.031-1.583.031-2.311.031-.712,0-1.408,0-2.232-.031-1.045-.032-1.535-.57-1.567-1.251-.016-.269-.016-.538-.016-.807,0-.365,0-.7.016-1.013.032-.618.46-1.2,1.535-1.235.6-.016,1.219-.032,1.852-.032l-.015-2.026-4.7.016a10.523,10.523,0,0,1-1.788,5.762.5.5,0,0,1-.411.221.424.424,0,0,1-.443-.4.5.5,0,0,1,.095-.268c1.519-2.042,1.773-4.543,1.773-7.06,0-1.06-.047-2.121-.063-3.165v-.032a1.4,1.4,0,0,1,1.551-1.424c1.013-.032,2.279-.032,3.562-.032,1.266,0,2.564,0,3.608.032,1.409.016,1.472.7,1.472,1.852,0,.744-.142,1.424-1.63,1.44-1.393.016-3.308.047-5.255.047-.807,0-1.63,0-2.406-.016,0,.317.016.633.016.95,0,.443-.016.886-.032,1.345l4.654.016v-1.646a.382.382,0,0,1,.411-.38.387.387,0,0,1,.427.38V318.4l4.542-.016a.372.372,0,1,1,0,.744Zm-5.493-3.751c1.109.016,2.295.016,3.45.016,1.63,0,3.15-.016,4.21-.047.745-.016.824-.38.824-.934,0-.649-.064-.918-.855-.934-.887-.016-1.978-.032-3.087-.032-1.345,0-2.691.016-3.656.032a.839.839,0,0,0-.9.9v.047Zm2.074,7.945c0,1.029.078,1.457.9,1.472.586.016,1.219.032,1.884.032.791,0,1.614-.016,2.373-.032.792-.015.886-.4.886-1.377,0-.285,0-.57-.015-.791-.032-.76-.285-.776-2.991-.776-.745,0-1.488,0-2.137.032C527.012,321.884,526.934,322.28,526.934,323.309Z" transform="translate(-493.269 -312.293)" fill="#1a1311"/>
      <path id="パス_59" data-name="パス 59" d="M553.882,318.995a.485.485,0,0,1-.191.918.512.512,0,0,1-.285-.095,6.224,6.224,0,0,0-2.31-.9.34.34,0,0,1-.3-.348.448.448,0,0,1,.459-.459A9.55,9.55,0,0,1,553.882,318.995Zm-1.172,5.856a.511.511,0,0,1-.522-.491.474.474,0,0,1,.4-.459,14.228,14.228,0,0,0,8.595-7.66.47.47,0,0,1,.886.19.773.773,0,0,1-.095.332A15.476,15.476,0,0,1,552.71,324.851Zm2.644-7.8a6.608,6.608,0,0,0-2.074-1.409.366.366,0,0,1-.237-.332.442.442,0,0,1,.443-.443c.222,0,2.691,1.171,2.691,1.852a.494.494,0,0,1-.475.506A.522.522,0,0,1,555.354,317.048Zm4.494-1.9a4.933,4.933,0,0,0-1.535-1.124.294.294,0,0,1-.206-.269.374.374,0,0,1,.4-.332c.349,0,2.01.886,2.01,1.472a.4.4,0,0,1-.38.4A.36.36,0,0,1,559.848,315.149Zm1.314-1.155a5.1,5.1,0,0,0-1.568-1.108.331.331,0,0,1-.221-.285.374.374,0,0,1,.4-.332c.284,0,2.057.87,2.057,1.456a.405.405,0,0,1-.4.411A.354.354,0,0,1,561.162,313.993Z" transform="translate(-504.469 -312.11)" fill="#1a1311"/>
      <path id="パス_60" data-name="パス 60" d="M580.41,326.958c.506.015,1.155.031,1.82.031,3.055,0,3.4-.031,3.435-.743.016-.3.016-.839.016-1.409-1.567.032-3.783.047-4.875.047a.381.381,0,0,1-.411-.364c0-.174.142-.348.459-.348,1.124,0,3.688-.047,4.828-.047,0-.491-.016-.918-.016-1.155-.016-.649-.317-.681-1.5-.681-1.124,0-2.659.047-3.625.095h-.032a.363.363,0,0,1-.411-.364.374.374,0,0,1,.411-.38c.934-.032,2.311-.063,3.435-.063.443,0,.839,0,1.171.016a1.231,1.231,0,0,1,1.377,1.282v3.482c-.015.886-.648,1.283-1.551,1.329-1.25.063-3.292.063-4.494.063a.427.427,0,0,1-.475-.411.389.389,0,0,1,.427-.38Z" transform="translate(-515.883 -315.752)" fill="#1a1311"/>
      <path id="パス_61" data-name="パス 61" d="M604.268,315.965a.448.448,0,0,1-.459-.459.435.435,0,0,1,.459-.443c1.472-.063,3.419-.095,5.144-.095.745,0,1.457,0,2.073.016.918.016,1.457.522,1.457,1.25a1.989,1.989,0,0,1-.111.586,12.063,12.063,0,0,1-7.455,7.882.935.935,0,0,1-.332.063.46.46,0,0,1-.506-.443.537.537,0,0,1,.427-.506,10.446,10.446,0,0,0,6.917-7.455c0-.522-.317-.554-1.536-.554-1.678,0-4.114.095-6.062.158Zm9.4-1.092a4.989,4.989,0,0,0-1.551-1.124.294.294,0,0,1-.205-.269.373.373,0,0,1,.4-.332c.427,0,2.026.934,2.026,1.472a.4.4,0,0,1-.38.4A.361.361,0,0,1,613.669,314.873Zm1.3-1.155a5.092,5.092,0,0,0-1.567-1.108.31.31,0,0,1-.206-.269.373.373,0,0,1,.4-.332c.238,0,2.058.855,2.058,1.44a.406.406,0,0,1-.4.412A.383.383,0,0,1,614.968,313.717Z" transform="translate(-525.211 -312.008)" fill="#1a1311"/>
    </g>
    <g id="グループ_54" data-name="グループ 54" transform="translate(192.711 1379.824)">
      <path id="パス_62" data-name="パス 62" d="M479.295,349.928a2.065,2.065,0,0,1,1.057.256.208.208,0,0,0,.111.034.165.165,0,0,0,.1-.034,1.1,1.1,0,0,1,.656-.23c.341,0,.392.145.392.256a.222.222,0,0,1-.222.231c-.016,0-.042-.009-.06-.009a.734.734,0,0,0-.136-.009c-.281,0-.443.146-.443.247a.215.215,0,0,0,.017.06,1.358,1.358,0,0,1,.1.545c0,.742-.555,1.27-1.552,1.3-.563.026-1.084.3-1.084.631,0,.273.41.3.819.3a7.926,7.926,0,0,1,1.382.043,1.172,1.172,0,0,1,1.143,1.109c0,.861-.827,1.51-2.14,1.51-.93,0-1.936-.41-1.936-1.271a1.126,1.126,0,0,1,.8-1.006c.059-.026.094-.034.094-.042s-.051-.009-.128-.035a.614.614,0,0,1-.5-.571c0-.17.06-.5.6-.776.06-.034.086-.051.086-.068s-.051-.034-.111-.068a1.214,1.214,0,0,1-.605-1.049,1.406,1.406,0,0,1,1.543-1.356Zm.289,4c-.136,0-.273,0-.383.009-.588.033-1.227.392-1.227.937,0,.4.409.844,1.406.844.887,0,1.7-.358,1.7-1.04C481.077,353.936,480.182,353.927,479.584,353.927Zm-.281-3.607a.985.985,0,0,0-1.091.938c0,.93.989.93,1.066.93.111,0,1.126-.043,1.126-.938S479.44,350.32,479.3,350.32Z" transform="translate(-477.504 -347.626)" fill="#1a1311"/>
      <path id="パス_63" data-name="パス 63" d="M491.154,351.924a1.979,1.979,0,1,1,1.969,2.047A1.941,1.941,0,0,1,491.154,351.924Zm3.453,0a1.483,1.483,0,1,0-1.484,1.586A1.493,1.493,0,0,0,494.607,351.924Z" transform="translate(-482.845 -347.609)" fill="#1a1311"/>
      <path id="パス_64" data-name="パス 64" d="M505.876,346.984a.382.382,0,0,1-.4-.418.4.4,0,0,1,.41-.392.392.392,0,0,1,.418.392A.414.414,0,0,1,505.876,346.984Zm.281,5.227a.269.269,0,0,1-.538,0c0-.724.009-1.722.009-2.515,0-.4,0-.75-.009-.989V348.7a.252.252,0,0,1,.273-.239.242.242,0,0,1,.264.23v.008c-.009.359-.017,1.057-.017,1.791,0,.605.009,1.236.017,1.714Z" transform="translate(-488.448 -346.157)" fill="#1a1311"/>
      <path id="パス_65" data-name="パス 65" d="M517.982,353.694c.009-.358.018-1.023.018-1.56,0-.349-.009-.648-.018-.785a.93.93,0,0,0-.955-.981,1.27,1.27,0,0,0-1.287,1.143c-.009.264-.018.734-.018,1.322,0,.273,0,.554.009.861v.009a.228.228,0,0,1-.247.23.249.249,0,0,1-.264-.239v-.009c.017-.69.034-1.483.034-2.208,0-.477-.008-.92-.017-1.3v-.009a.25.25,0,0,1,.273-.222.221.221,0,0,1,.239.23v.324a.05.05,0,0,0,.008.034.047.047,0,0,0,.035-.026,1.576,1.576,0,0,1,1.261-.614,1.366,1.366,0,0,1,1.424,1.364c.008.273.017.9.017,1.492,0,.359,0,.708-.009.938a.232.232,0,0,1-.247.248.242.242,0,0,1-.256-.239Z" transform="translate(-492.261 -347.615)" fill="#1a1311"/>
      <path id="パス_66" data-name="パス 66" d="M528.912,352.25c.026-1.1.034-2.788.034-4.135,0-.674,0-1.263-.009-1.655a.257.257,0,0,1,.511,0v.009c-.017.6-.017,1.689-.017,2.464v.9c0,.094.043.128.128.128a.294.294,0,0,0,.17-.06c.521-.358,1.365-.964,1.859-1.339a.275.275,0,0,1,.163-.06.28.28,0,0,1,.264.281.2.2,0,0,1-.093.179c-.52.359-1.271.87-1.74,1.168-.05.035-.076.06-.076.085s.026.051.068.094c.443.426,1.586,1.407,1.876,1.68a.284.284,0,0,1,.1.222.281.281,0,0,1-.273.273.248.248,0,0,1-.188-.077c-.264-.256-1.518-1.459-1.91-1.868a.273.273,0,0,0-.238-.1c-.137,0-.137.06-.137.878,0,.23,0,.52.009.92a.237.237,0,0,1-.256.239.22.22,0,0,1-.247-.213Z" transform="translate(-497.618 -346.179)" fill="#1a1311"/>
      <path id="パス_67" data-name="パス 67" d="M541.069,356.163a.256.256,0,0,1-.273-.256.26.26,0,0,1,.29-.247c.691,0,.989-.469,1.441-1.518a.3.3,0,0,0,.026-.111.422.422,0,0,0-.043-.163c-.264-.656-1.228-2.941-1.441-3.522a.27.27,0,0,1-.017-.111.247.247,0,0,1,.256-.239.243.243,0,0,1,.239.17c.212.572.955,2.481,1.2,3.044.034.077.06.119.086.119a27.4,27.4,0,0,0,1.261-3.138.258.258,0,0,1,.256-.187.261.261,0,0,1,.281.247.294.294,0,0,1-.026.111c-.418,1.023-1.194,2.848-1.714,4.093C542.451,355.532,542.007,356.163,541.069,356.163Z" transform="translate(-502.268 -347.653)" fill="#1a1311"/>
      <path id="パス_68" data-name="パス 68" d="M554.208,351.924a1.98,1.98,0,1,1,1.97,2.047A1.941,1.941,0,0,1,554.208,351.924Zm3.454,0a1.483,1.483,0,1,0-1.484,1.586A1.493,1.493,0,0,0,557.662,351.924Z" transform="translate(-507.515 -347.609)" fill="#1a1311"/>
      <path id="パス_69" data-name="パス 69" d="M580.29,346.508c-.018.768-.018,1.68-.018,2.558,0,.716,0,1.407.008,1.961v.026a1.415,1.415,0,0,1-1.569,1.467,2.68,2.68,0,0,1-.758-.111.311.311,0,0,1-.239-.3.26.26,0,0,1,.273-.273.524.524,0,0,1,.153.026,2,2,0,0,0,.639.119.882.882,0,0,0,.955-.972c.009-.511.009-1.126.009-1.773,0-.913-.009-1.885-.026-2.712v-.008a.273.273,0,0,1,.29-.273.258.258,0,0,1,.282.256Z" transform="translate(-516.713 -346.184)" fill="#1a1311"/>
      <path id="パス_70" data-name="パス 70" d="M590.146,349.335a3.1,3.1,0,1,1,6.191,0,3.1,3.1,0,1,1-6.191,0Zm5.637,0a2.545,2.545,0,1,0-2.541,2.686A2.55,2.55,0,0,0,595.783,349.335Z" transform="translate(-521.577 -346.146)" fill="#1a1311"/>
      <path id="パス_71" data-name="パス 71" d="M610.816,352.48c-.145.009-.452.018-.717.018-.6,0-1.483-.018-1.526-.938-.017-.359-.017-1-.017-1.68,0-1.032.009-2.191.026-2.737.026-.947.861-.955,1.527-.955.179,0,.349.009.469.017,1.3.085,1.782.768,1.782,1.432a1.386,1.386,0,0,1-1.014,1.356c-.068.017-.1.026-.1.035a.943.943,0,0,0,.1.016,1.58,1.58,0,0,1,1.415,1.629A1.855,1.855,0,0,1,610.816,352.48Zm-.8-3.18c-.93,0-.956,0-.956.2,0,1.441,0,1.765.018,1.953.043.486.366.58,1.04.58.23,0,.477-.017.673-.026a1.4,1.4,0,0,0,1.415-1.381,1.324,1.324,0,0,0-1.373-1.313C610.6,349.3,610.3,349.3,610.015,349.3Zm.486-2.635c-.026,0-.273-.008-.511-.008-.657,0-.87.128-.9.58-.016.213-.008.938-.016,1.449,0,.162.026.17.81.17.265,0,.537,0,.7-.008a1.248,1.248,0,0,0,1.27-1.16C611.847,347.169,611.43,346.665,610.5,346.665Z" transform="translate(-528.78 -346.162)" fill="#1a1311"/>
    </g>
  </g>
</svg>
